# Blender v2.79 (sub 0) OBJ File: 'AAA.blend'
# www.blender.org
mtllib AAA.mtl
o Cube
v 46.710449 -17.251247 -17.251245
v 46.710449 -17.251247 17.251247
v -41.643444 -17.251247 17.251244
v -41.643436 -17.251247 -17.251253
v 46.710464 15.717857 -17.251238
v 46.710442 15.717857 17.251257
v -41.643448 15.717857 17.251242
v -41.643440 15.717857 -17.251247
vn 0.0000 -1.0000 -0.0000
vn 0.0000 1.0000 0.0000
vn 1.0000 -0.0000 0.0000
vn -0.0000 -0.0000 1.0000
vn -1.0000 -0.0000 -0.0000
vn 0.0000 0.0000 -1.0000
usemtl Material
s off
f 1//1 2//1 3//1 4//1
f 5//2 8//2 7//2 6//2
f 1//3 5//3 6//3 2//3
f 2//4 6//4 7//4 3//4
f 3//5 7//5 8//5 4//5
f 5//6 1//6 4//6 8//6
