# Blender v2.79 (sub 0) OBJ File: 'AAA.blend'
# www.blender.org
mtllib AAA2.mtl
o Cube
v -18.436081 29.160440 -66.774155
v 16.062346 28.642939 -66.661240
v 15.373034 1.000809 17.254471
v -19.125395 1.518312 17.141552
v -18.000166 60.470608 -56.456917
v 16.498262 59.953098 -56.343979
v 15.808940 32.310966 27.571732
v -18.689482 32.828472 27.458813
vn -0.0132 -0.9497 -0.3129
vn 0.0132 0.9497 0.3129
vn 0.0078 0.3129 -0.9498
vn 0.9999 -0.0150 0.0033
vn -0.0078 -0.3129 0.9498
vn -0.9999 0.0150 -0.0033
usemtl Material
s off
f 1//1 2//1 3//1 4//1
f 5//2 8//2 7//2 6//2
f 1//3 5//3 6//3 2//3
f 2//4 6//4 7//4 3//4
f 3//5 7//5 8//5 4//5
f 5//6 1//6 4//6 8//6
